{
  "accessors": [
    {
      "bufferView": 2,
      "componentType": 5126,
      "count": 6,
      "max": [
        -0.7879549860954285,
        0.5957369804382324,
        1.2373549938201904
      ],
      "min": [
        -0.7895810008049011,
        0.5938590168952942,
        1.2373549938201904
      ],
      "type": "VEC3"
    },
    {
      "bufferView": 1,
      "componentType": 5126,
      "count": 6,
      "max": [
        0.0,
        0.0
      ],
      "min": [
        0.0,
        0.0
      ],
      "type": "VEC2"
    },
    {
      "bufferView": 0,
      "componentType": 5125,
      "count": 12,
      "type": "SCALAR"
    },
    {
      "bufferView": 2,
      "byteOffset": 72,
      "componentType": 5126,
      "count": 9696,
      "max": [
        0.0015259999781847,
        4.089301109313965,
        1.2655669450759888
      ],
      "min": [
        -1.3541619777679443,
        -0.03415700048208237,
        1.0103399753570557
      ],
      "type": "VEC3"
    },
    {
      "bufferView": 2,
      "byteOffset": 116424,
      "componentType": 5126,
      "count": 9696,
      "max": [
        1.0,
        1.0,
        1.0
      ],
      "min": [
        -1.0,
        -1.0,
        -1.0
      ],
      "type": "VEC3"
    },
    {
      "bufferView": 3,
      "componentType": 5126,
      "count": 9696,
      "max": [
        1.0,
        1.0,
        1.0,
        1.0
      ],
      "min": [
        -1.0,
        -1.0,
        -1.0,
        -1.0
      ],
      "type": "VEC4"
    },
    {
      "bufferView": 1,
      "byteOffset": 48,
      "componentType": 5126,
      "count": 9696,
      "max": [
        0.9935029745101929,
        0.9949579834938049
      ],
      "min": [
        0.0,
        0.0
      ],
      "type": "VEC2"
    },
    {
      "bufferView": 0,
      "byteOffset": 48,
      "componentType": 5125,
      "count": 33270,
      "type": "SCALAR"
    },
    {
      "bufferView": 2,
      "byteOffset": 232776,
      "componentType": 5126,
      "count": 4053,
      "max": [
        -0.1472329944372177,
        4.066884994506836,
        1.2506999969482422
      ],
      "min": [
        -1.1482969522476196,
        -0.037716999650001526,
        1.0172070264816284
      ],
      "type": "VEC3"
    },
    {
      "bufferView": 2,
      "byteOffset": 281412,
      "componentType": 5126,
      "count": 4053,
      "max": [
        1.0,
        1.0,
        1.0
      ],
      "min": [
        -1.0,
        -1.0,
        -1.0
      ],
      "type": "VEC3"
    },
    {
      "bufferView": 3,
      "byteOffset": 155136,
      "componentType": 5126,
      "count": 4053,
      "max": [
        1.0,
        1.0,
        1.0,
        1.0
      ],
      "min": [
        -1.0,
        -1.0,
        -1.0,
        -1.0
      ],
      "type": "VEC4"
    },
    {
      "bufferView": 1,
      "byteOffset": 77616,
      "componentType": 5126,
      "count": 4053,
      "max": [
        0.9962790012359619,
        0.9930890202522278
      ],
      "min": [
        0.0,
        0.0
      ],
      "type": "VEC2"
    },
    {
      "bufferView": 0,
      "byteOffset": 133128,
      "componentType": 5125,
      "count": 10959,
      "type": "SCALAR"
    },
    {
      "bufferView": 2,
      "byteOffset": 330048,
      "componentType": 5126,
      "count": 590,
      "max": [
        -0.43837499618530273,
        4.120694160461426,
        1.2359169721603394
      ],
      "min": [
        -0.8210440278053284,
        1.340932011604309,
        1.117292046546936
      ],
      "type": "VEC3"
    },
    {
      "bufferView": 2,
      "byteOffset": 337128,
      "componentType": 5126,
      "count": 590,
      "max": [
        1.0,
        1.0,
        1.0
      ],
      "min": [
        -1.0,
        -1.0,
        -1.0
      ],
      "type": "VEC3"
    },
    {
      "bufferView": 3,
      "byteOffset": 219984,
      "componentType": 5126,
      "count": 590,
      "max": [
        1.0,
        0.626147449016571,
        1.0,
        1.0
      ],
      "min": [
        -1.0,
        -1.0,
        -1.0,
        1.0
      ],
      "type": "VEC4"
    },
    {
      "bufferView": 1,
      "byteOffset": 110040,
      "componentType": 5126,
      "count": 590,
      "max": [
        0.6809449791908264,
        1.0
      ],
      "min": [
        0.0,
        0.0
      ],
      "type": "VEC2"
    },
    {
      "bufferView": 0,
      "byteOffset": 176964,
      "componentType": 5125,
      "count": 2166,
      "type": "SCALAR"
    }
  ],
  "asset": {
    "extras": {
      "author": "Anderson Fogaça (https://sketchfab.com/andersonfogaca)",
      "license": "CC-BY-4.0 (http://creativecommons.org/licenses/by/4.0/)",
      "source": "https://sketchfab.com/3d-models/fender-stratocaster-d5dac6b9f2964601b07109c78ed9e7cd",
      "title": "Fender Stratocaster"
    },
    "generator": "Sketchfab-15.7.0",
    "version": "2.0"
  },
  "bufferViews": [
    {
      "buffer": 0,
      "byteLength": 185628,
      "name": "floatBufferViews",
      "target": 34963
    },
    {
      "buffer": 0,
      "byteLength": 114760,
      "byteOffset": 185628,
      "byteStride": 8,
      "name": "floatBufferViews",
      "target": 34962
    },
    {
      "buffer": 0,
      "byteLength": 344208,
      "byteOffset": 300388,
      "byteStride": 12,
      "name": "floatBufferViews",
      "target": 34962
    },
    {
      "buffer": 0,
      "byteLength": 229424,
      "byteOffset": 644596,
      "byteStride": 16,
      "name": "floatBufferViews",
      "target": 34962
    }
  ],
  "buffers": [
    {
      "byteLength": 874020,
      "uri": "scene.bin"
    }
  ],
  "images": [
    {
      "uri": "textures/Guitar_baseColor.jpeg"
    },
    {
      "uri": "textures/Guitar_metallicRoughness.png"
    },
    {
      "uri": "textures/Guitar_normal.png"
    },
    {
      "uri": "textures/Neck_baseColor.jpeg"
    },
    {
      "uri": "textures/Neck_metallicRoughness.png"
    },
    {
      "uri": "textures/Neck_normal.png"
    }
  ],
  "materials": [
    {
      "doubleSided": true,
      "name": "Guitar",
      "normalTexture": {
        "index": 2
      },
      "occlusionTexture": {
        "index": 1
      },
      "pbrMetallicRoughness": {
        "baseColorTexture": {
          "index": 0
        },
        "metallicRoughnessTexture": {
          "index": 1
        }
      }
    },
    {
      "doubleSided": true,
      "name": "Neck",
      "normalTexture": {
        "index": 5
      },
      "occlusionTexture": {
        "index": 4
      },
      "pbrMetallicRoughness": {
        "baseColorTexture": {
          "index": 3
        },
        "metallicRoughnessTexture": {
          "index": 4
        }
      }
    }
  ],
  "meshes": [
    {
      "name": "Object_0",
      "primitives": [
        {
          "attributes": {
            "POSITION": 0,
            "TEXCOORD_0": 1
          },
          "indices": 2,
          "material": 0,
          "mode": 1
        }
      ]
    },
    {
      "name": "Object_1",
      "primitives": [
        {
          "attributes": {
            "NORMAL": 4,
            "POSITION": 3,
            "TANGENT": 5,
            "TEXCOORD_0": 6
          },
          "indices": 7,
          "material": 0,
          "mode": 4
        }
      ]
    },
    {
      "name": "Object_2",
      "primitives": [
        {
          "attributes": {
            "NORMAL": 9,
            "POSITION": 8,
            "TANGENT": 10,
            "TEXCOORD_0": 11
          },
          "indices": 12,
          "material": 0,
          "mode": 4
        }
      ]
    },
    {
      "name": "Object_3",
      "primitives": [
        {
          "attributes": {
            "NORMAL": 14,
            "POSITION": 13,
            "TANGENT": 15,
            "TEXCOORD_0": 16
          },
          "indices": 17,
          "material": 1,
          "mode": 4
        }
      ]
    }
  ],
  "nodes": [
    {
      "children": [
        1
      ],
      "matrix": [
        1.0,
        0.0,
        0.0,
        0.0,
        0.0,
        2.220446049250313e-16,
        -1.0,
        0.0,
        0.0,
        1.0,
        2.220446049250313e-16,
        0.0,
        0.0,
        0.0,
        0.0,
        1.0
      ],
      "name": "Sketchfab_model"
    },
    {
      "children": [
        2,
        3,
        4,
        5
      ],
      "name": "Fender.obj.cleaner.materialmerger.gles"
    },
    {
      "mesh": 0,
      "name": "Object_2"
    },
    {
      "mesh": 1,
      "name": "Object_3"
    },
    {
      "mesh": 2,
      "name": "Object_4"
    },
    {
      "mesh": 3,
      "name": "Object_5"
    }
  ],
  "samplers": [
    {
      "magFilter": 9729,
      "minFilter": 9987,
      "wrapS": 10497,
      "wrapT": 10497
    }
  ],
  "scene": 0,
  "scenes": [
    {
      "name": "Sketchfab_Scene",
      "nodes": [
        0
      ]
    }
  ],
  "textures": [
    {
      "sampler": 0,
      "source": 0
    },
    {
      "sampler": 0,
      "source": 1
    },
    {
      "sampler": 0,
      "source": 2
    },
    {
      "sampler": 0,
      "source": 3
    },
    {
      "sampler": 0,
      "source": 4
    },
    {
      "sampler": 0,
      "source": 5
    }
  ]
}
